<svg width="58" height="58" viewBox="0 0 58 58" fill="none" xmlns="http://www.w3.org/2000/svg">
<circle cx="29" cy="29" r="29" fill="#A4C6F1"/>
<path d="M43.5435 18.7604C41.6379 18.7604 40.0871 20.3109 40.0871 22.2168C40.0871 22.8825 40.2852 23.4991 40.6127 24.0271L36.1595 28.3446L31.2203 20.5114C32.0092 19.7792 32.5065 18.7371 32.5065 17.5785C32.5065 15.3694 30.7093 13.5718 28.4997 13.5718C26.2906 13.5718 24.493 15.3693 24.493 17.5785C24.493 18.7352 24.9887 19.7758 25.7754 20.5077L20.8375 28.3442L16.3866 24.0278C16.7142 23.4996 16.9124 22.8828 16.9124 22.2168C16.9124 20.3108 15.362 18.7604 13.4563 18.7604C11.5505 18.7604 10 20.3108 10 22.2168C10 24.0835 11.4903 25.5997 13.3425 25.6614L16.0599 38.8618L14.467 45.4279H42.531L40.939 38.868L43.6573 25.6614C45.5093 25.5997 46.9998 24.0835 46.9998 22.2168C47 20.3108 45.4492 18.7604 43.5435 18.7604ZM28.4998 15.0517C29.893 15.0517 31.0265 16.1852 31.0265 17.5785C31.0265 18.9714 29.893 20.1048 28.4998 20.1048C27.1066 20.1048 25.9731 18.9713 25.9731 17.5785C25.9731 16.1852 27.1065 15.0517 28.4998 15.0517ZM11.48 22.2168C11.48 21.1271 12.3666 20.2404 13.4564 20.2404C14.5462 20.2404 15.4325 21.1271 15.4325 22.2168C15.4325 23.3066 14.5462 24.1929 13.4564 24.1929C12.3666 24.1929 11.48 23.3066 11.48 22.2168ZM16.3488 43.948L17.4003 39.6157H39.5979L40.6493 43.948H16.3488ZM39.5784 38.1357H17.4212L14.8 25.4009C14.9979 25.3171 15.1849 25.2132 15.362 25.0956L21.1173 30.6769L27.0256 21.3002C27.4825 21.4818 27.9791 21.5849 28.4998 21.5849C29.019 21.5849 29.5139 21.4825 29.9696 21.302L35.8805 30.6766L41.6371 25.0953C41.8144 25.2131 42.0017 25.3171 42.1998 25.401L39.5784 38.1357ZM43.5435 24.1929C42.4538 24.1929 41.5671 23.3066 41.5671 22.2168C41.5671 21.1271 42.4538 20.2404 43.5435 20.2404C44.6333 20.2404 45.52 21.1271 45.52 22.2168C45.52 23.3066 44.6333 24.1929 43.5435 24.1929Z" fill="white"/>
</svg>
