<svg width="58" height="58" viewBox="0 0 58 58" fill="none" xmlns="http://www.w3.org/2000/svg">
<circle cx="29" cy="29" r="29" fill="#CAAAF3"/>
<g clip-path="url(#clip0_15_877)">
<path d="M40.1932 36.9611C40.1757 36.7374 40.0378 36.5408 39.8336 36.4481C38.7105 35.9368 37.4591 35.6666 36.2149 35.6666C34.5396 35.6666 32.9196 36.1436 31.5309 37.0454C30.5388 37.6897 29.7247 38.525 29.1167 39.4765V33.1687C34.6098 32.8468 38.9833 28.2891 38.9833 22.7166V11.6166C38.9833 11.6132 38.9814 11.6104 38.9813 11.6069C38.9806 11.5559 38.9646 11.5072 38.9512 11.4576C38.9435 11.4292 38.9431 11.3983 38.9316 11.3717C38.9203 11.3456 38.8984 11.3247 38.8834 11.3C38.8561 11.2558 38.8311 11.2105 38.794 11.1746C38.7914 11.1721 38.7907 11.1688 38.7881 11.1664C38.765 11.1446 38.7359 11.1357 38.7104 11.1182C38.6723 11.0918 38.6368 11.0629 38.5931 11.0455C38.5451 11.0265 38.4951 11.022 38.4446 11.0155C38.418 11.0122 38.3944 11 38.3667 11C38.3635 11 38.361 11.0017 38.358 11.0017C38.302 11.0025 38.2484 11.0189 38.1944 11.0348C38.1708 11.0418 38.1447 11.0416 38.1224 11.0512C38.0949 11.0632 38.0729 11.086 38.047 11.102C38.0039 11.1289 37.9595 11.1533 37.9244 11.1896C37.9221 11.1919 37.919 11.1927 37.9168 11.195L32.7659 16.6939L29.0071 11.2656C28.7771 10.9326 28.223 10.9329 27.993 11.2659L24.1214 16.8631L19.0941 11.2069C19.09 11.2024 19.0843 11.2008 19.0801 11.1964C19.0485 11.1627 19.0089 11.1398 18.9704 11.1138C18.9414 11.0945 18.9159 11.07 18.8847 11.056C18.8543 11.0423 18.8197 11.0396 18.7869 11.031C18.7413 11.0192 18.6972 11.0047 18.6503 11.0035C18.6443 11.0033 18.6393 11 18.6334 11C18.6031 11 18.5771 11.013 18.548 11.0173C18.5028 11.0236 18.4584 11.0276 18.4153 11.0441C18.3722 11.0605 18.3366 11.087 18.2988 11.1122C18.2744 11.1284 18.2464 11.1359 18.2239 11.156C18.2195 11.1599 18.218 11.1656 18.2137 11.1696C18.1789 11.2023 18.155 11.2429 18.1285 11.2828C18.1101 11.3105 18.0866 11.3349 18.0732 11.3648C18.0586 11.397 18.0555 11.4332 18.0467 11.4681C18.0356 11.5118 18.0216 11.554 18.0202 11.5989C18.02 11.6052 18.0167 11.6104 18.0167 11.6167V22.7167C18.0167 25.5677 19.1639 28.1533 21.0168 30.045C21.0314 30.0619 21.0382 30.0828 21.0548 30.0984C21.0622 30.1052 21.0718 30.1074 21.0794 30.1138C22.8421 31.8821 25.2334 33.0135 27.8833 33.1688V39.4766C27.2753 38.5252 26.4611 37.6899 25.4691 37.0458C24.0803 36.1437 22.4604 35.6667 20.785 35.6667C19.5408 35.6667 18.2895 35.9368 17.1663 36.4481C16.9622 36.5408 16.8243 36.7375 16.8068 36.9612C16.584 39.8015 17.9727 42.5582 20.4309 44.1544C21.8196 45.0565 23.4395 45.5334 25.115 45.5334C26.0531 45.5334 26.995 45.3791 27.8833 45.0844V47.3834C27.8833 47.724 28.1591 48.0001 28.4999 48.0001C28.8408 48.0001 29.1166 47.7239 29.1166 47.3834V45.0844C30.0049 45.3791 30.9468 45.5334 31.8849 45.5334C33.5603 45.5334 35.1803 45.0565 36.569 44.1547C39.0273 42.5581 40.416 39.8015 40.1932 36.9611ZM27.8816 43.7743C27.0084 44.119 26.0592 44.3 25.115 44.3C23.6787 44.3 22.2912 43.892 21.1031 43.12C19.1308 41.8394 17.9721 39.6835 18.0185 37.4257C18.8917 37.081 19.8409 36.9 20.7851 36.9C22.2214 36.9 23.6089 37.308 24.7971 38.08C26.7693 39.3606 27.9279 41.5165 27.8816 43.7743ZM28.5 12.7003L31.9034 17.6149L28.2532 21.5118L24.9646 17.8118L28.5 12.7003ZM19.25 22.7166V13.2387L27.4062 22.4159L21.4886 28.7333C20.097 27.1141 19.25 25.0142 19.25 22.7166ZM28.5 31.9666C26.1403 31.9666 23.9911 31.0711 22.3553 29.6117L37.75 13.1768V22.7166C37.75 27.8172 33.6007 31.9666 28.5 31.9666ZM35.897 43.1203C34.7088 43.892 33.3213 44.3 31.885 44.3C30.9407 44.3 29.9917 44.119 29.1185 43.7743C29.0721 41.5165 30.2308 39.3606 32.203 38.0797C33.3912 37.308 34.7787 36.9 36.2149 36.9C37.1592 36.9 38.1083 37.081 38.9815 37.4257C39.0279 39.6835 37.8693 41.8394 35.897 43.1203Z" fill="white"/>
</g>
<defs>
<clipPath id="clip0_15_877">
<rect width="37" height="37" fill="white" transform="translate(10 11)"/>
</clipPath>
</defs>
</svg>
