<svg width="58" height="58" viewBox="0 0 58 58" fill="none" xmlns="http://www.w3.org/2000/svg">
<circle cx="29" cy="29" r="29" fill="#BED5AE"/>
<g clip-path="url(#clip0_14_43)">
<path d="M44.988 21.5427C44.7507 16.792 40.8093 13 36 13C33.2547 13 30.7013 14.2373 29 16.352C27.2973 14.2373 24.744 13 22 13C17.1907 13 13.2507 16.792 13.012 21.5427C13.004 21.5827 13 21.624 13 21.6667V22C13 22.0427 13.004 22.084 13.012 22.1227C13.3973 30.0094 23.5347 41.8427 28.6573 44.9054C28.7626 44.9694 28.8813 45.0001 29 45.0001C29.1187 45.0001 29.2373 44.9694 29.3427 44.9054C34.464 41.8427 44.6027 30.0094 44.988 22.1227C44.996 22.084 45 22.0427 45 22V21.6667C45 21.624 44.996 21.584 44.988 21.5427ZM29 43.548C23.8787 40.2347 14.4827 28.8707 14.3347 21.8333C14.4227 17.6826 17.828 14.3333 22 14.3333C24.6093 14.3333 27.0173 15.648 28.44 17.8506C28.6853 18.2319 29.3147 18.2306 29.56 17.8506C30.9813 15.648 33.3893 14.3333 36 14.3333C40.172 14.3333 43.5773 17.6826 43.6653 21.8333C43.5173 28.8707 34.1213 40.2347 29 43.548Z" fill="white"/>
</g>
<defs>
<clipPath id="clip0_14_43">
<rect width="32" height="32" fill="white" transform="translate(13 13)"/>
</clipPath>
</defs>
</svg>
