<svg width="58" height="58" viewBox="0 0 58 58" fill="none" xmlns="http://www.w3.org/2000/svg">
<circle cx="29" cy="29" r="29" fill="#F57B51"/>
<path d="M38.7692 20.124C38.5491 20.1075 38.3291 20.0997 38.1631 20.1015C38.0963 20.0958 31.1086 19.5818 28.3109 28.7907C25.8654 36.8404 20.2004 36.4832 19.9008 36.4607C19.789 36.4607 19.6765 36.4582 19.564 36.4529C15.5695 36.2758 12.4399 33.002 12.4399 28.9998C12.4399 24.8858 15.7868 21.5386 19.9008 21.5386C22.451 21.5386 24.7988 22.8211 26.1811 24.9695L27.3919 24.1904C25.7438 21.6282 22.9432 20.0985 19.9008 20.0985C14.9931 20.0987 11 24.0918 11 28.9999C11 33.7744 14.7336 37.6803 19.4994 37.8916C19.6323 37.8976 19.7652 37.8997 19.8369 37.8979C19.8439 37.8986 19.9283 37.9049 20.0759 37.9049C21.3324 37.9049 27.1852 37.4493 29.6891 29.209C32.1345 21.1586 37.801 21.5183 38.0992 21.5387C38.2883 21.5387 38.4768 21.5461 38.6624 21.5597C42.5302 21.848 45.56 25.1158 45.56 28.9998C45.56 33.1138 42.2132 36.4607 38.0992 36.4607C35.5489 36.4607 33.2019 35.1782 31.8196 33.0298L30.6087 33.8089C32.2568 36.371 35.0567 37.9007 38.0992 37.9007C43.0069 37.9007 47 33.9077 47 28.9999C47 24.3663 43.3845 20.4675 38.7692 20.124Z" fill="white"/>
</svg>
