<svg width="58" height="58" viewBox="0 0 58 58" fill="none" xmlns="http://www.w3.org/2000/svg">
<circle cx="29" cy="29" r="29" fill="#CAAAF3"/>
<g clip-path="url(#clip0_11_185)">
<path d="M19.0834 33.25H13.4166C13.0256 33.25 12.7083 33.5674 12.7083 33.9584V45.2917C12.7083 45.6827 13.0256 46.0001 13.4166 46.0001H19.0833C19.4743 46.0001 19.7916 45.6827 19.7916 45.2917V33.9584C19.7916 33.5674 19.4744 33.25 19.0834 33.25ZM18.375 44.5834H14.125V34.6666H18.375V44.5834Z" fill="white"/>
<path d="M27.5834 26.1667H21.9167C21.5257 26.1667 21.2084 26.4841 21.2084 26.8751V45.2917C21.2084 45.6827 21.5257 46.0001 21.9167 46.0001H27.5834C27.9744 46.0001 28.2917 45.6827 28.2917 45.2917V26.8751C28.2916 26.4841 27.9744 26.1667 27.5834 26.1667ZM26.875 44.5835H22.625V27.5835H26.875V44.5835Z" fill="white"/>
<path d="M36.0834 19.0833H30.4167C30.0257 19.0833 29.7084 19.4006 29.7084 19.7916V45.2916C29.7084 45.6826 30.0257 46 30.4167 46H36.0834C36.4744 46 36.7917 45.6826 36.7917 45.2916V19.7916C36.7916 19.4005 36.4744 19.0833 36.0834 19.0833ZM35.375 44.5833H31.125V20.4999H35.375V44.5833Z" fill="white"/>
<path d="M44.5834 12H38.9167C38.5257 12 38.2084 12.3174 38.2084 12.7084V45.2917C38.2084 45.6827 38.5257 46.0001 38.9167 46.0001H44.5834C44.9744 46.0001 45.2917 45.6827 45.2917 45.2917V12.7084C45.2917 12.3174 44.9744 12 44.5834 12ZM43.875 44.5834H39.625V13.4166H43.875V44.5834Z" fill="white"/>
</g>
<defs>
<clipPath id="clip0_11_185">
<rect width="34" height="34" fill="white" transform="translate(12 12)"/>
</clipPath>
</defs>
</svg>
