<svg width="58" height="58" viewBox="0 0 58 58" fill="none" xmlns="http://www.w3.org/2000/svg">
<circle cx="29" cy="29" r="29" fill="#BED5AE"/>
<g clip-path="url(#clip0_15_751)">
<path d="M30.2656 10C22.4631 10 15.473 15.0305 13.2671 22.2331C13.0259 23.0201 13.0924 23.8563 13.4539 24.588L14.8297 27.3687C15.0653 27.8314 14.9723 28.3933 14.5993 28.7659L10.5528 32.7867C10.1252 33.2101 9.92756 33.8168 10.0243 34.4097C10.1211 35.0031 10.5015 35.5158 11.0383 35.7796L12.6257 36.5731C12.8097 36.6635 12.9322 36.836 12.9538 37.0426L13.7835 43.9885C13.9666 45.554 15.2982 46.7343 16.8809 46.7343C17.1695 46.7343 17.4582 46.6941 17.702 46.624L22.5537 45.5608C22.79 45.5097 23.0445 45.6029 23.1914 45.7937L24.6965 47.7528C24.8165 47.9086 25.0021 48.0001 25.1987 48.0001H40.3996C40.7358 48.0001 41.0135 47.7376 41.032 47.4018L41.1641 45.0175C41.3079 42.4242 42.3197 39.8949 44.0132 37.8956C46.5839 34.8604 48 31.0267 48 27.1002C47.9999 17.6711 40.0443 10 30.2656 10ZM43.0465 37.0766C41.1762 39.2852 40.0582 42.0805 39.8993 44.9475L39.8004 46.7334H25.5107L24.1958 45.0217C23.7555 44.4486 22.9885 44.17 22.2825 44.3234L17.394 45.3956C17.2254 45.4435 17.0529 45.4677 16.881 45.4677C15.9408 45.4677 15.1501 44.7684 15.0416 43.8398L14.2128 36.901C14.1457 36.2674 13.7613 35.7199 13.1883 35.4383L11.6009 34.6447C11.4249 34.5581 11.3059 34.3982 11.2743 34.2059C11.2431 34.0138 11.305 33.825 11.445 33.6864L15.4937 29.6634C16.2572 28.9002 16.444 27.747 15.9618 26.8005L14.5894 24.0265C14.3713 23.5862 14.3321 23.0808 14.4781 22.6043C16.5226 15.9288 23.0145 11.2667 30.2656 11.2667C39.346 11.2667 46.7332 18.3694 46.7332 27.1C46.7333 30.7271 45.4239 34.2701 43.0465 37.0766Z" fill="white"/>
<path d="M39.7459 19.7138C37.5418 16.8914 34.1168 15.0667 30.2666 15.0667C29.7767 15.0667 29.2964 15.1049 28.8217 15.162C28.7983 15.1637 28.7763 15.1682 28.753 15.1726C22.8313 15.9207 18.2333 20.9785 18.2333 27.1C18.2333 29.823 19.1531 32.3294 20.684 34.3482C20.7119 34.399 20.7454 34.444 20.7872 34.4861C22.9914 37.3085 26.4163 39.1333 30.2666 39.1333C30.7443 39.1333 31.2132 39.0977 31.6766 39.0432C31.7317 39.0424 31.7867 39.0337 31.841 39.0181C37.7331 38.2428 42.2999 33.2002 42.2999 27.0999C42.2999 24.3768 41.38 21.8704 39.8492 19.8517C39.8213 19.8009 39.7877 19.7559 39.7459 19.7138ZM30.2666 16.3333C33.5878 16.3333 36.5609 17.8463 38.5374 20.2176L35.3333 25.8241L29.918 16.3509C30.0347 16.3472 30.1489 16.3333 30.2666 16.3333ZM34.6039 27.1003L32.4324 30.9H28.1018L25.9292 27.0996L28.1007 23.3H32.4313L34.6039 27.1003ZM28.5357 16.4856L31.7072 22.0333H20.7718C22.3261 19.1321 25.1727 17.0328 28.5357 16.4856ZM21.1819 32.8537C20.1226 31.187 19.4999 29.2168 19.4999 27.1C19.4999 25.7609 19.7568 24.4836 20.2054 23.3H26.6418L21.1819 32.8537ZM30.2666 37.8667C26.9453 37.8667 23.9722 36.3536 21.9957 33.9823L25.1998 28.3759L30.6152 37.849C30.4984 37.8527 30.3842 37.8667 30.2666 37.8667ZM31.9974 37.7143L28.8259 32.1667H39.7614C38.207 35.0678 35.3604 37.1671 31.9974 37.7143ZM40.3277 30.9H33.8913L39.3512 21.3462C40.4106 23.0129 41.0333 24.9831 41.0333 27.1C41.0333 28.439 40.7764 29.7163 40.3277 30.9Z" fill="white"/>
</g>
<defs>
<clipPath id="clip0_15_751">
<rect width="38" height="38" fill="white" transform="translate(10 10)"/>
</clipPath>
</defs>
</svg>
