<svg width="58" height="58" viewBox="0 0 58 58" fill="none" xmlns="http://www.w3.org/2000/svg">
<circle cx="29" cy="29" r="29" fill="#F57B51"/>
<path d="M46.15 19.0168H40.4109L39.011 15.2801C38.7313 14.5532 38.0502 14.0835 37.2761 14.0835H29.1239C28.3497 14.0835 27.6686 14.5532 27.3869 15.2855L25.9891 19.0168H22.1V17.7835C22.1 16.7633 21.2702 15.9335 20.25 15.9335H17.7834C16.7632 15.9335 15.9334 16.7633 15.9334 17.7835V19.0169H12.85C11.8298 19.0169 11 19.8467 11 20.8669V43.0669C11 44.087 11.8298 44.9169 12.85 44.9169H46.15C47.1702 44.9169 48 44.087 48 43.0669V20.8669C48 19.8467 47.1702 19.0168 46.15 19.0168ZM17.1666 17.7835C17.1666 17.4436 17.4433 17.1669 17.7833 17.1669H20.25C20.5899 17.1669 20.8666 17.4436 20.8666 17.7835V19.0169H17.1666V17.7835ZM18.4 43.6835H12.85C12.5101 43.6835 12.2334 43.4068 12.2334 43.0669V20.8669C12.2334 20.5269 12.5101 20.2502 12.85 20.2502H16.55H18.4V43.6835ZM46.7666 43.0668C46.7666 43.4067 46.4899 43.6834 46.15 43.6834H19.6334V20.2501H21.4834H26.4167C26.6738 20.2501 26.9039 20.0906 26.9943 19.8496L28.5399 15.7233C28.6351 15.4763 28.8641 15.3168 29.124 15.3168H37.2761C37.536 15.3168 37.7652 15.4763 37.8582 15.7179L39.4059 19.8496C39.4962 20.0905 39.7262 20.2501 39.9834 20.2501H46.15C46.4899 20.2501 46.7666 20.5268 46.7666 20.8668V43.0668Z" fill="white"/>
<path d="M33.2 21.4834C27.4193 21.4834 22.7166 26.1861 22.7166 31.9667C22.7166 37.7474 27.4193 42.45 33.2 42.45C38.9807 42.45 43.6834 37.7473 43.6834 31.9667C43.6834 26.186 38.9807 21.4834 33.2 21.4834ZM33.2 41.2167C28.0996 41.2167 23.95 37.0671 23.95 31.9667C23.95 26.8662 28.0996 22.7167 33.2 22.7167C38.3004 22.7167 42.45 26.8662 42.45 31.9667C42.45 37.0671 38.3004 41.2167 33.2 41.2167Z" fill="white"/>
<path d="M33.2 23.9502C28.7794 23.9502 25.1834 27.5463 25.1834 31.9668C25.1834 36.3874 28.7794 39.9835 33.2 39.9835C37.6206 39.9835 41.2166 36.3874 41.2166 31.9669C41.2166 27.5464 37.6206 23.9502 33.2 23.9502ZM33.2 38.7502C29.4597 38.7502 26.4166 35.7072 26.4166 31.9668C26.4166 28.2265 29.4596 25.1835 33.2 25.1835C36.9404 25.1835 39.9834 28.2264 39.9834 31.9668C39.9834 35.7072 36.9403 38.7502 33.2 38.7502Z" fill="white"/>
</svg>
