<svg width="58" height="58" viewBox="0 0 58 58" fill="none" xmlns="http://www.w3.org/2000/svg">
<circle cx="29" cy="29" r="29" fill="#A4C6F1"/>
<g clip-path="url(#clip0_11_136)">
<path d="M40.75 31.5C38.7209 31.5 36.9572 32.8288 36.0833 34.7679C35.2095 32.8288 33.4458 31.5 31.4167 31.5C28.5217 31.5 26.1667 34.2042 26.1667 37.5279C26.1667 42.1931 29.0919 44.165 32.1891 46.2525C33.3569 47.0398 34.5646 47.8538 35.6971 48.8538C35.8077 48.9513 35.9455 49 36.0834 49C36.2213 49 36.3591 48.9513 36.4696 48.8539C37.6021 47.8539 38.8098 47.0399 39.9776 46.2526C43.0748 44.165 46.0001 42.1932 46.0001 37.5279C46 34.2042 43.645 31.5 40.75 31.5ZM39.3259 45.2852C38.2555 46.0061 37.1532 46.7493 36.0834 47.647C35.0136 46.7493 33.9113 46.0061 32.8409 45.2852C29.7642 43.2108 27.3334 41.5728 27.3334 37.5279C27.3334 34.8473 29.1654 32.6666 31.4167 32.6666C33.668 32.6666 35.5 34.8473 35.5 37.5279C35.5 37.85 35.7609 38.1112 36.0833 38.1112C36.4057 38.1112 36.6666 37.85 36.6666 37.5279C36.6666 34.8473 38.4987 32.6666 40.7499 32.6666C43.0012 32.6666 44.8332 34.8473 44.8332 37.5279C44.8333 41.5728 42.4026 43.2108 39.3259 45.2852Z" fill="white"/>
<path d="M44.25 14H12.75C11.785 14 11 14.785 11 15.75V37.9167C11 38.8817 11.785 39.6667 12.75 39.6667H24.5215C24.8439 39.6667 25.1048 39.4055 25.1048 39.0834C25.1048 38.7613 24.8439 38.5001 24.5215 38.5001H18.341L35.676 21.1707C35.8948 20.9485 36.269 20.9457 36.4935 21.1736L44.8333 29.5078V31.7393C44.8333 32.0614 45.0942 32.3226 45.4166 32.3226C45.7391 32.3226 45.9999 32.0614 45.9999 31.7393V15.75C46 14.785 45.215 14 44.25 14ZM16.691 38.5H12.75C12.4282 38.5 12.1667 38.2383 12.1667 37.9167V30.68L17.5927 25.2539C17.8115 25.0318 18.1857 25.0289 18.4102 25.2568L24.1759 31.0172L16.691 38.5ZM44.8333 27.8579L37.3212 20.3509C36.6593 19.6815 35.5046 19.6844 34.8483 20.348L25.0012 30.1922L19.2379 24.4342C18.576 23.7649 17.4213 23.7675 16.765 24.4317L12.1667 29.0302V15.75C12.1667 15.4284 12.4282 15.1667 12.75 15.1667H44.25C44.5718 15.1667 44.8333 15.4284 44.8333 15.75V27.8579V27.8579Z" fill="white"/>
<path d="M25.5833 18.0835C23.6533 18.0835 22.0833 19.6535 22.0833 21.5835C22.0833 23.5135 23.6533 25.0835 25.5833 25.0835C27.5133 25.0835 29.0833 23.5135 29.0833 21.5835C29.0833 19.6535 27.5134 18.0835 25.5833 18.0835ZM25.5833 23.9169C24.2964 23.9169 23.25 22.8702 23.25 21.5836C23.25 20.297 24.2964 19.2502 25.5833 19.2502C26.8702 19.2502 27.9166 20.297 27.9166 21.5835C27.9166 22.87 26.8702 23.9169 25.5833 23.9169Z" fill="white"/>
</g>
<defs>
<clipPath id="clip0_11_136">
<rect width="35" height="35" fill="white" transform="translate(11 14)"/>
</clipPath>
</defs>
</svg>
