<svg width="84" height="24" viewBox="0 0 84 24" fill="none" xmlns="http://www.w3.org/2000/svg">
<path d="M82.6954 23.2554L78.5465 9.1024C79.8182 8.69802 81.0865 7.9351 81.7429 6.9013C82.5184 5.68007 82.6426 3.85771 81.2646 2.70794C79.9825 1.63771 77.7896 1.68219 76.8139 1.68219H71.824V2.05556H72.7892V23.2554H71.8362V23.6301H76.8249V23.2554H75.8719V2.05556H76.8139C79.6574 2.06634 80.625 5.62211 79.2262 7.53611C78.0607 9.13073 75.9195 9.46906 75.9195 9.46906L79.6452 23.2554H78.6417V23.6301H83.6781V23.2554H82.6954ZM64.3974 1.67815H57.6666V2.05286H58.621V23.2541H57.6666V23.6301H65.1119V19.0257H64.7323V23.2541H61.7065V9.94217H63.431V12.6016H63.8106V6.91343H63.431V9.56611H61.7065V2.05286H64.7323V6.28123H65.1119V1.67815H64.3974ZM43.6412 1.67815V2.05286H44.5913V23.2541H43.6399V23.6301H51.0854V19.0257H50.707V23.2541H47.677V2.05286H48.6299V1.67815H43.6412ZM28.086 1.67815V6.28123H28.4643V2.06769H30.6054V23.2541H29.654V23.6301H34.6426V23.2541H33.6911V2.06769H35.8336V6.28123H36.212V1.67815H28.086ZM16.6304 9.79926L17.5642 15.3648H15.6368L16.6304 9.79926ZM13.8578 23.2541H12.8982V23.6301H15.2353V23.2554H14.2362L15.5633 15.7422H17.6268L18.8873 23.2541H17.8528V23.6301H22.8414V23.2541H21.9689L17.9589 0.993408H17.7766L13.8578 23.2541ZM0.103317 1.67815V6.28123H0.481718V2.06769H2.62418V23.2541H1.67137V23.6301H6.66001V23.2541H5.70855V2.06769H7.85099V6.28123H8.22943V1.67815H0.103317Z" fill="#171717"/>
</svg>
