<svg width="87" height="23" viewBox="0 0 87 23" fill="none" xmlns="http://www.w3.org/2000/svg">
<path fill-rule="evenodd" clip-rule="evenodd" d="M52.1852 13.8254H53.7949V13.6144H47.1585V13.8254H48.867V18.4814C48.867 20.6335 47.935 22.6029 44.9699 22.6592C42.8378 22.6873 41.6799 21.4917 41.0586 19.8319C40.3808 18.0594 40.1408 16.1886 40.1408 11.9545C40.1408 9.23968 40.395 5.21664 41.327 3.41613C41.7646 2.57214 42.5695 1.08108 44.9275 1.08108C47.8927 1.09515 49.6153 3.50053 50.8861 8.53636H50.9567V0.827881H50.8861C50.2649 2.31893 47.921 1.58748 47.921 1.58748C47.6414 1.49969 47.3958 1.41711 47.1712 1.34157C46.352 1.06609 45.8111 0.884147 44.9133 0.884147C41.2563 0.884147 36.2296 4.58365 36.2296 12.2218C36.2296 18.4534 39.9856 22.8702 45.1252 22.8702C46.2332 22.8702 47.1124 22.4523 47.957 22.0509C48.7377 21.6799 49.4888 21.3229 50.3636 21.3229C50.9285 21.3229 51.9875 21.6745 52.157 22.5889H52.1993L52.1852 13.8254ZM68.9316 1.65771H70.6684H71.1061H72.744V22.2512H70.8802V22.4763H86.1297V14.7396H86.031C85.6804 22.4469 77.109 22.2973 76.3305 22.2678V11.856C76.4225 11.856 76.5161 11.8553 76.611 11.8546C78.4098 11.8417 80.6703 11.8255 81.0325 16.3151H81.103V7.24214H81.0183C80.5382 11.6028 78.1096 11.6309 76.3164 11.6309V1.69991C76.589 1.69991 76.8634 1.6958 77.1386 1.69168C80.4276 1.64245 83.8167 1.59171 85.1978 8.53626H85.2825V1.44671H71.1061H70.6824H70.6684H66.7572V1.65771H68.6774V17.0466C68.6069 20.9148 65.797 22.6732 63.6224 22.6029C59.6406 22.4622 59.1888 18.7064 59.1888 17.9327V1.65771H61.0951V1.44671H53.682V1.65771H55.6448V16.0477C55.6448 19.902 57.6074 22.8842 63.3542 22.8842C67.209 22.8842 68.974 19.691 68.9316 17.0466V1.65771ZM14.2731 1.64365V1.44671H18.1561V1.64365H16.4759L10.1925 22.5888H10.0795L2.17231 1.64365H0.251984V1.44671H7.26961V1.64365H5.58935L11.4068 17.7217L16.2358 1.64365H14.2731ZM30.398 11.842C30.398 13.3331 30.285 18.0877 29.0283 20.4508C28.2518 21.97 26.8962 22.603 25.3148 22.603C23.7334 22.603 22.3779 21.9559 21.6012 20.4508C20.3587 18.0877 20.2316 13.3331 20.2316 11.842C20.2316 10.351 20.3445 5.75121 21.6012 3.28957C22.3495 1.77038 23.7334 1.13738 25.3148 1.13738C26.8962 1.13738 28.28 1.78445 29.0283 3.28957C30.285 5.75121 30.398 10.365 30.398 11.842ZM34.408 11.842C34.408 5.24481 29.6497 0.926385 25.3148 0.926385C20.9799 0.926385 16.2215 5.24481 16.2215 11.842C16.2215 18.4392 21.1352 22.814 25.3148 22.814C29.5084 22.814 34.408 18.4392 34.408 11.842Z" fill="#171717"/>
</svg>
