<svg width="55" height="42" viewBox="0 0 55 42" fill="none" xmlns="http://www.w3.org/2000/svg">
<path fill-rule="evenodd" clip-rule="evenodd" d="M1.00848 7.09736V13.6221H2.47516H3.94183L3.97645 9.77974C4.01253 5.75241 4.06709 5.83737 4.8145 11.0847L5.17589 13.6221H6.1524C7.31284 13.6221 7.29436 13.669 7.7898 9.48888C8.00159 7.70054 8.25884 6.52551 8.39289 6.73401C8.52108 6.93381 8.62815 8.57253 8.63079 10.3757L8.63519 13.654L10.0285 13.5655L11.4219 13.4771L11.5008 7.02487L11.5797 0.57267H9.26205H6.94411L6.73262 2.80325C6.39264 6.3898 6.13158 6.53798 5.70947 3.38496L5.33312 0.57267H3.17065H1.00848V7.09736ZM12.7419 7.09736V13.6221H14.5019H16.2619V7.09736V0.57267H14.5019H12.7419V7.09736ZM17.7286 7.09736V13.6221H20.3686H23.0086V12.3171C23.0086 11.0191 23.003 11.0122 21.9819 11.0122H20.9553V5.79243V0.57267H19.3419H17.7286V7.09736ZM25.3541 0.79016C25.3523 1.12161 23.925 11.6055 23.7352 12.6796L23.5686 13.6221H25.3045H27.0402L27.2279 12.4621C27.3705 11.5808 27.5494 11.3022 27.973 11.3022C28.3948 11.3022 28.5787 11.5846 28.7286 12.4621L28.9269 13.6221H30.5144C31.8729 13.6221 32.102 13.5435 32.102 13.0766C32.102 12.7767 31.706 9.91168 31.222 6.70994C30.738 3.50791 30.342 0.817128 30.342 0.730422C30.342 0.643716 29.22 0.57267 27.8486 0.57267C26.4773 0.57267 25.3547 0.670396 25.3541 0.79016ZM32.982 7.08142V13.6221H34.302H35.622L35.6308 10.7947C35.6411 7.59498 35.8273 7.66545 36.8165 11.243L37.4814 13.649L38.9719 13.5629L40.462 13.4771L40.5409 7.02487L40.6198 0.57267H39.1476H37.6753L37.6522 3.40004L37.6293 6.22741L36.6757 3.47253L35.7223 0.717663L34.3521 0.629217L32.982 0.540771V7.08142ZM28.3599 7.02487C28.5039 8.84801 28.4737 8.98228 27.9196 8.98228C27.3664 8.98228 27.3382 8.85816 27.5136 7.19973C27.6172 6.21957 27.7105 5.07761 27.7204 4.66235C27.7548 3.27331 28.1909 4.88564 28.3599 7.02487ZM16.8808 14.6069C15.9067 15.1404 15.4045 16.1583 15.3922 17.6239C15.3778 19.3789 15.9542 20.2842 17.9814 21.6901C19.8359 22.9762 20.2474 23.6338 19.9447 24.8268C19.6332 26.0529 18.7717 25.5846 18.6652 24.1315L18.5748 22.9016H16.9451H15.3153L15.518 24.2791C15.887 26.7843 16.8163 27.5414 19.5223 27.5414C22.4034 27.5414 23.5929 26.032 23.1277 22.966C22.9024 21.481 22.3113 20.7737 19.9776 19.1976C18.728 18.3538 18.5825 18.145 18.6637 17.3127C18.7884 16.0385 19.6027 16.0434 19.7271 17.3194C19.8186 18.256 19.8291 18.2618 21.4137 18.2618C23.1916 18.2618 23.2594 18.1511 22.7 16.16C22.4935 15.4255 22.1183 14.9316 21.5428 14.6376C20.4979 14.1031 17.8318 14.0857 16.8808 14.6069ZM39.9525 14.6559C38.514 15.4275 38.262 16.3636 38.2632 20.9297C38.2641 24.5627 38.3368 25.1943 38.8498 26.0262C39.5421 27.1488 40.4415 27.5417 42.3144 27.5402C44.1844 27.5388 45.4692 26.7323 45.8691 25.3091C46.2698 23.8827 46.2698 17.8608 45.8691 16.4343C45.459 14.9746 44.1877 14.2006 42.222 14.2148C41.4154 14.2206 40.394 14.4189 39.9525 14.6559ZM1.00848 20.8717V27.2514H2.62183H4.23517V24.6415V22.0317H5.26184C6.28294 22.0317 6.28851 22.0247 6.28851 20.7267C6.28851 19.4247 6.28616 19.4218 5.24512 19.4218H4.20143L4.29178 18.1893C4.38066 16.9743 4.39738 16.9569 5.48213 16.9569C6.58097 16.9569 6.58214 16.9555 6.58214 15.7245L6.58185 14.492H3.79516H1.00848V20.8717ZM7.37062 20.5092C6.93209 23.8186 6.57539 26.6897 6.57774 26.8889C6.58067 27.1383 7.13156 27.2514 8.34185 27.2514H10.1019V26.0712C10.1019 25.0133 10.1702 24.9008 10.7619 24.9837C11.2919 25.0583 11.4398 25.2905 11.5128 26.164L11.604 27.2514H13.3517C15.0129 27.2514 15.0924 27.2189 14.9516 26.599C14.87 26.2399 14.4717 23.6628 14.0663 20.8717C13.6609 18.0806 13.2605 15.5032 13.1766 15.1445C13.0335 14.5326 12.8733 14.492 10.5955 14.492H8.16732L7.37062 20.5092ZM24.1819 20.8459V27.1998L25.9425 27.2981L27.7031 27.3964L27.7025 24.714C27.702 22.2248 27.7442 22.0317 28.2886 22.0317C28.8319 22.0317 28.8753 22.2251 28.8753 24.6415V27.2514H30.4886H32.102V20.8717V14.492H30.501H28.8999L28.8143 16.7362C28.743 18.6032 28.6424 18.997 28.2153 19.0773C27.7606 19.1631 27.702 18.9065 27.702 16.8331V14.492H25.9419H24.1819V20.8459ZM33.5686 20.8717V27.2514H35.182H36.7953V20.8717V14.492H35.182H33.5686V20.8717ZM47.3554 20.8285V27.1955L48.8224 27.2958L50.289 27.3964L50.3113 24.4966L50.3336 21.5967L51.1432 24.3516L51.9525 27.1064L53.4673 27.194L54.9821 27.2819V20.8868V14.492H53.6621H52.3421V17.1599C52.3421 18.7783 52.2368 19.7193 52.074 19.5523C51.9267 19.4006 51.4882 18.2328 51.0995 16.9569L50.3932 14.637L48.8743 14.5494L47.3554 14.4616V20.8285ZM42.662 21.0338C42.662 24.6398 42.5834 25.5115 42.2587 25.5115C42.0369 25.5115 41.7729 25.1038 41.672 24.6053C41.3819 23.1713 41.4588 17.7973 41.7814 16.9584C42.3936 15.3663 42.662 16.608 42.662 21.0338ZM11.1109 20.5092C11.3089 22.8236 11.2952 22.9016 10.6877 22.9016C10.0972 22.9016 10.0708 22.8022 10.2456 21.2342C10.4662 19.2585 10.7126 17.8939 10.8255 18.0235C10.8701 18.0748 10.9986 19.1936 11.1109 20.5092ZM0.438534 29.1938C0.447921 29.8001 0.748296 32.7104 1.10587 35.661L1.75649 41.0258L3.87583 41.111C5.04154 41.1577 5.99518 41.1244 5.99518 41.0365C5.99518 40.6218 6.90422 34.9558 6.98313 34.8775C7.0327 34.8285 7.23892 36.0731 7.44132 37.6434C7.64372 39.2137 7.90801 40.656 8.02857 40.8489C8.17465 41.0826 8.92002 41.1705 10.2676 41.1125L12.2875 41.0258L12.9393 35.516C13.2977 32.4857 13.5981 29.582 13.6063 29.0638L13.6219 28.1214H12.0484H10.475L10.2972 29.4031C10.1995 30.1084 10.0321 31.772 9.92528 33.1004C9.62431 36.841 9.3257 36.6655 9.09221 32.6112C8.97487 30.5761 8.81002 28.7332 8.72554 28.5161C8.51815 27.9813 5.44987 27.9674 5.24307 28.5004C5.16211 28.7089 4.91688 30.503 4.69805 32.4877C4.47951 34.4724 4.27183 36.0308 4.23663 35.951C4.20143 35.8713 4.02191 34.1096 3.8374 32.0362L3.50183 28.2664L1.96182 28.1788L0.421814 28.0909L0.438534 29.1938ZM14.5019 34.6461V41.1708H17.4352H20.3686V39.8658V38.5609H19.0324H17.6963L17.7858 37.1835C17.8744 35.8194 17.8858 35.8052 18.9752 35.7161C20.0418 35.6288 20.0752 35.5917 20.0752 34.5011C20.0752 33.4104 20.0418 33.3733 18.9752 33.286C17.9025 33.1985 17.8752 33.1671 17.8752 32.0362C17.8752 30.9053 17.9025 30.8739 18.9752 30.7864C20.0676 30.6968 20.0752 30.6872 20.0752 29.4089V28.1214H17.2886H14.5019V34.6461ZM21.5419 34.6461V41.1708H24.4753H27.4086V39.8658V38.5609H26.0886H24.7686V37.111V35.661H25.7953C26.7976 35.661 26.8219 35.6335 26.8219 34.5011C26.8219 33.3687 26.7976 33.3411 25.7953 33.3411C24.7742 33.3411 24.7686 33.3342 24.7686 32.0362V30.7313H25.9419H27.1153V29.4263V28.1214H24.3286H21.5419V34.6461ZM28.2886 34.6316V41.1708H30.0486H31.8086L31.84 38.7784L31.8717 36.386L32.483 38.7784L33.0943 41.1708H34.798C35.7352 41.1708 36.5005 41.0728 36.4991 40.9533C36.4973 40.8338 36.0444 39.2554 35.4923 37.4465L34.4888 34.1569L35.4398 31.2118L36.3908 28.2664L34.9473 28.1776C34.1533 28.1289 33.4507 28.1411 33.3862 28.2052C33.3214 28.269 32.9521 29.353 32.5652 30.6138L31.8617 32.9062L31.7617 30.5863L31.662 28.2664L29.9753 28.1794L28.2886 28.0924V34.6316Z" fill="#171717"/>
</svg>
