<svg width="174" height="74" viewBox="0 0 174 74" fill="none" xmlns="http://www.w3.org/2000/svg">
<path d="M0.999674 73.4998L10.7954 67.386L0.602847 61.9596L0.999674 73.4998ZM172.108 0.0462891C160.338 23.1962 146.982 33.7774 132.946 38.0054C118.838 42.2548 103.879 40.1479 88.7258 37.5287C73.6623 34.925 58.3708 31.8029 43.9819 34.3389C29.4808 36.8946 15.9794 45.1666 4.36196 65.0581L6.08897 66.0668C17.4478 46.6181 30.4767 38.7499 44.329 36.3085C58.2936 33.8474 73.1789 36.8711 88.3851 39.4995C103.501 42.1123 118.905 44.3235 133.522 39.9204C148.211 35.4958 161.942 24.4537 173.891 0.952733L172.108 0.0462891Z" fill="#E0DED2"/>
</svg>
