<svg width="435" height="451" viewBox="0 0 435 451" fill="none" xmlns="http://www.w3.org/2000/svg">
<g opacity="0.6" filter="url(#filter0_b_3223_14060)">
<ellipse rx="196.417" ry="196.62" transform="matrix(-1 0 0 1 225.249 241.717)" fill="#BED5AE"/>
<path d="M29.3321 241.717C29.3321 350.032 117.048 437.837 225.249 437.837C333.45 437.837 421.166 350.032 421.166 241.717C421.166 133.402 333.45 45.5967 225.249 45.5967C117.048 45.5967 29.3321 133.402 29.3321 241.717Z" stroke="#BED5AE"/>
</g>
<path d="M16.6053 241.086C16.6053 356.467 110.043 450 225.303 450C340.562 450 434 356.467 434 241.086C434 125.704 340.562 32.1709 225.303 32.1709C110.043 32.1709 16.6053 125.704 16.6053 241.086Z" stroke="#BED5AE" stroke-width="2"/>
<mask id="mask0_3223_14060" style="mask-type:alpha" maskUnits="userSpaceOnUse" x="28" y="45" width="394" height="394">
<ellipse rx="196.417" ry="196.62" transform="matrix(-1 0 0 1 225.249 241.717)" fill="#ECEDF0"/>
</mask>
<g mask="url(#mask0_3223_14060)">
<path d="M390.586 291.621C370.302 254.261 316.522 232.364 283.852 209.248C280.534 206.905 276.53 207.327 274.894 204.344C272.152 199.33 272.62 188.179 273.258 182.306C274.178 174.106 279.475 165.86 278.15 157.004C296.472 155.879 297.952 125.844 293.278 110.304C293.262 108.976 293.013 107.602 293.621 106.165C293.574 105.322 292.187 105.821 292.281 104.822C292.779 103.635 293.543 102.682 293.885 101.339C293.979 100.277 292.655 100.605 292.546 99.73C293.449 97.7621 295.303 96.7781 296.285 94.9039C295.661 93.67 297.095 91.5927 295.49 89.8122C296.363 88.7813 296.721 86.2511 296.549 84.986C297.251 84.4393 299.104 85.0485 299.494 84.1738C299.011 82.0965 296.97 80.2223 296.549 78.0044C296.098 75.6929 296.83 73.0533 296.549 70.773C295.319 60.7302 290.162 52.8896 285.582 45.8456C285.566 45.2052 286.033 45.049 285.831 44.2369C282.933 41.5036 280.16 38.3174 278.088 34.85C275.206 30.0551 269.893 27.0875 264.44 24.9322C259.237 22.8705 253.847 21.2149 247.864 21.9802C246.353 22.1677 244.904 23.0267 243.315 23.0579C240.215 23.1048 238.781 21.4336 236.631 20.9182C233.469 20.1685 228.826 20.1216 225.134 20.3871C223.732 20.4808 222.641 21.2305 221.395 21.4648C216.861 22.3082 212.764 22.9017 208.293 24.6823C208.931 23.1673 210.224 22.3082 210.162 20.1216C205.457 19.7936 202.669 25.1196 199.475 26.291C200.472 22.074 201.111 18.5285 202.949 15.5766C204.85 12.5309 208.355 10.891 209.368 7.26744C208.854 7.32992 208.776 6.97069 208.293 7.00193C201.048 12.1561 196.484 20.0123 194.645 30.5861C187.323 33.7255 172.351 31.2109 168.986 39.1608C168.612 40.3322 170.03 39.7231 169.781 40.7695C168.02 42.8468 165.216 43.8776 164.702 47.2044C164.577 48.1259 166.166 47.3606 166.306 48.0166C161.041 52.0306 157.115 57.3878 155.074 64.6349C155.37 65.6032 156.382 64.588 156.678 65.1659C156.647 66.759 154.762 67.7742 156.149 69.1955C154.544 71.3353 152.051 72.6004 151.864 76.1614C152.129 76.8799 153.547 76.4426 153.999 76.9736C153.251 78.9884 152.129 80.644 151.864 83.143C152.955 83.5647 153.562 84.4862 153.204 86.3604C153.843 86.5322 155.152 86.0324 155.354 86.626C154.528 88.7345 155.837 90.1245 155.619 91.7176C155.23 94.529 151.677 95.3568 151.864 98.1525C151.989 98.9335 153.89 97.9183 153.999 98.6836C153.485 100.808 154.747 101.151 155.339 102.167C155.152 103.01 154.248 104.103 154.793 104.853C155.152 105.759 157.037 105.103 156.943 106.462C155.058 109.788 158.33 110.741 157.208 114.505C158.782 116.192 159.529 118.082 160.324 120.362C158.563 136.824 163.689 159.534 176.355 161.127C175.109 181.681 189.909 186.164 186.933 208.452C176.184 206.546 146.817 228.693 135.662 233.02C115.627 240.782 94.3299 248.264 77.8003 262.523C57.2356 280.235 55.1324 301.305 55.0701 326.794C55.0078 352.69 66.1314 398.281 55.0701 421.459C59.962 437.999 53.2006 457.382 47 475H109.722C111.452 468.081 113.306 461.115 115.315 454.102C118.229 453.477 118.93 462.021 118.4 475H337.056C337.352 472.079 337.772 469.206 338.364 466.347C340.561 465.863 342.742 469.205 344.814 475H404C401.227 464.91 398.407 454.493 395.868 443.357C384.682 394.189 416.308 338.961 390.586 291.621Z" fill="#171717"/>
</g>
<path d="M390.586 291.621C370.302 254.261 316.522 232.364 283.852 209.248C280.534 206.905 276.53 207.327 274.894 204.344C272.152 199.33 272.619 188.179 273.258 182.306C274.177 174.106 279.474 165.86 278.15 157.004C296.471 155.879 297.951 125.844 293.278 110.304C293.262 108.976 293.013 107.602 293.62 106.165C293.574 105.322 292.187 105.821 292.281 104.822C292.779 103.635 293.542 102.682 293.885 101.339C293.979 100.277 292.654 100.605 292.545 99.73C293.449 97.7621 295.303 96.7781 296.284 94.9039C295.661 93.67 297.095 91.5927 295.49 89.8122C296.362 88.7813 296.721 86.2511 296.549 84.986C297.25 84.4393 299.104 85.0485 299.494 84.1738C299.011 82.0965 296.97 80.2223 296.549 78.0044C296.097 75.6929 296.83 73.0533 296.549 70.773C295.318 60.7302 290.162 52.8896 285.581 45.8456C285.566 45.2052 286.033 45.049 285.831 44.2369C282.933 41.5036 280.16 38.3174 278.088 34.85C275.206 30.0551 269.893 27.0875 264.44 24.9322C259.237 22.8705 253.846 21.2149 247.864 21.9802C246.353 22.1677 244.904 23.0267 243.315 23.0579C240.214 23.1048 238.781 21.4336 236.631 20.9182C233.469 20.1685 228.826 20.1216 225.134 20.3871C223.732 20.4808 222.641 21.2305 221.395 21.4648C216.861 22.3082 212.764 22.9017 208.292 24.6823C208.931 23.1673 210.224 22.3082 210.162 20.1216C205.457 19.7936 202.668 25.1196 199.475 26.291C200.472 22.074 201.11 18.5285 202.949 15.5766C204.849 12.5309 208.355 10.891 209.367 7.26744C208.853 7.32992 208.775 6.97069 208.292 7.00193C201.048 12.1561 196.483 20.0123 194.645 30.5861C187.323 33.7255 172.351 31.2109 168.986 39.1608C168.612 40.3322 170.03 39.7231 169.78 40.7695C168.02 42.8468 165.216 43.8776 164.701 47.2044C164.577 48.1259 166.166 47.3606 166.306 48.0166C161.04 52.0306 157.114 57.3878 155.073 64.6349C155.369 65.6032 156.382 64.588 156.678 65.1659C156.647 66.759 154.762 67.7742 156.148 69.1955C154.544 71.3353 152.051 72.6004 151.864 76.1614C152.129 76.8799 153.547 76.4426 153.998 76.9736C153.251 78.9884 152.129 80.644 151.864 83.143C152.955 83.5647 153.562 84.4862 153.204 86.3604C153.843 86.5322 155.151 86.0325 155.354 86.626C154.528 88.7345 155.837 90.1245 155.619 91.7176C155.229 94.529 151.677 95.3568 151.864 98.1525C151.989 98.9335 153.889 97.9183 153.998 98.6836C153.484 100.808 154.746 101.151 155.338 102.167C155.151 103.01 154.248 104.103 154.793 104.853C155.151 105.759 157.036 105.103 156.943 106.462C155.058 109.788 158.33 110.741 157.208 114.505C158.781 116.192 159.529 118.082 160.324 120.362C158.563 136.824 163.689 159.534 176.355 161.127C175.108 181.681 189.909 186.164 186.933 208.452C176.183 206.546 146.816 228.693 135.662 233.02C115.627 240.782 94.3297 248.264 77.8001 262.523C57.2354 280.235 55.1322 301.305 55.0699 326.794C55.0075 352.69 158.561 303.616 147.5 326.794C152.392 343.335 153.701 299.484 147.5 317.102L62.7221 338C64.4514 331.081 66.3053 324.115 68.315 317.102C71.2284 316.477 71.9295 325.021 71.3998 338H290.055C290.351 335.079 290.772 332.206 291.364 329.347C293.561 328.863 295.742 332.205 297.814 338H357C354.227 327.91 351.407 317.493 348.867 306.357C337.681 257.189 416.307 338.961 390.586 291.621Z" fill="#171717"/>
<path d="M207.305 338V306.75H195.61V302.746H223.54V306.75H211.846V338H207.305ZM224.395 338V312.756H228.545V320.495H233.94C236.984 320.495 239.425 321.301 241.265 322.912C243.12 324.507 244.048 326.607 244.048 329.211C244.048 331.88 243.128 334.012 241.289 335.607C239.45 337.202 237 338 233.94 338H224.395ZM247.686 338V312.756H251.836V338H247.686ZM228.545 334.24H233.94C235.78 334.24 237.236 333.793 238.311 332.897C239.401 332.002 239.946 330.79 239.946 329.26C239.946 327.746 239.393 326.534 238.286 325.622C237.196 324.711 235.747 324.255 233.94 324.255H228.545V334.24Z" fill="white"/>
<defs>
<filter id="filter0_b_3223_14060" x="19.832" y="36.0967" width="410.833" height="411.24" filterUnits="userSpaceOnUse" color-interpolation-filters="sRGB">
<feFlood flood-opacity="0" result="BackgroundImageFix"/>
<feGaussianBlur in="BackgroundImage" stdDeviation="4.5"/>
<feComposite in2="SourceAlpha" operator="in" result="effect1_backgroundBlur_3223_14060"/>
<feBlend mode="normal" in="SourceGraphic" in2="effect1_backgroundBlur_3223_14060" result="shape"/>
</filter>
</defs>
</svg>
