<svg width="606" height="329" viewBox="0 0 606 329" fill="none" xmlns="http://www.w3.org/2000/svg">
<path d="M496.085 196.906C503.686 206.351 596.073 310.443 602.792 321.665C579.512 335.094 496.983 321.824 496.085 316.887C494.103 305.992 439.926 229.467 420.413 215.035C408.373 206.131 373.997 192.329 352.633 195.461C331.27 198.592 315.98 221.651 302.016 216.91C293.116 213.888 294.379 200.59 305.002 190.38C315.983 179.825 337.854 181.545 349.526 171.797C362.391 161.051 364.004 146.219 359.577 129.026C355.905 114.767 337.272 107.581 329.474 112.829C320.901 118.6 320.388 142.853 306.621 139.368C292.853 135.884 303.866 101.352 320.826 93.5008C342.048 83.6773 358.993 103.924 362.389 98.9386C365.786 93.9536 348.739 83.7446 339.833 54.3749C332.486 30.1441 333.655 3.28396 344.31 4.43694C354.964 5.58991 354.825 25.2482 360.444 48.7278C364.94 67.5115 380.153 85.3157 387.298 81.8324C398.989 76.1335 383.036 0.854747 402.065 1.04611C422.976 1.25639 403.916 93.0838 416.254 93.2081C425.873 93.305 444.48 25.7329 458.372 37.5837C467.049 44.9849 445.38 82.5552 436.8 97.432L436.704 97.5967C429.514 110.063 437.375 128.973 444.359 141.591C451.342 154.21 486.584 185.098 496.085 196.906Z" fill="#FED4C2" stroke="#171717" stroke-width="2"/>
<path d="M109.915 197.134C102.314 206.579 9.92702 310.672 3.20832 321.893C26.4877 335.322 109.017 322.053 109.915 317.115C111.897 306.22 166.074 229.695 185.587 215.263C197.627 206.359 232.003 192.557 253.367 195.689C274.73 198.82 290.02 221.879 303.984 217.138C312.884 214.116 311.621 200.818 300.998 190.608C290.017 180.054 268.146 181.773 256.474 172.025C243.609 161.28 241.996 146.447 246.423 129.254C250.095 114.996 268.728 107.809 276.526 113.057C285.099 118.828 285.612 143.081 299.38 139.596C313.147 136.112 302.134 101.58 285.174 93.7288C263.952 83.9053 247.007 104.152 243.611 99.1666C240.215 94.1816 257.261 83.9727 266.167 54.603C273.515 30.3721 272.345 3.51199 261.69 4.66497C251.036 5.81794 251.175 25.4762 245.556 48.9558C241.06 67.7396 225.847 85.5437 218.702 82.0604C207.011 76.3615 222.965 1.08277 203.935 1.27413C183.024 1.48442 202.084 93.3119 189.747 93.4361C180.127 93.533 161.52 25.9609 147.628 37.8117C138.951 45.2129 160.62 82.7832 169.201 97.66L169.296 97.8248C176.486 110.292 168.625 129.201 161.642 141.819C154.658 154.438 119.416 185.326 109.915 197.134Z" fill="#FED4C2" stroke="#171717" stroke-width="2"/>
</svg>
